<?xml version="1.0" encoding="UTF-8"?>
<svg id="Layer_2" xmlns="http://www.w3.org/2000/svg" viewBox="0 0 283.34 166.87"><defs><style>.cls-1{fill:none;}.cls-2{font-family:HiraKakuStdN-W8-83pv-RKSJ-H, 'Hiragino Kaku Gothic StdN';font-size:54.81px;}.cls-2,.cls-3{fill:#333;}.cls-4{fill:#f99e49;}.cls-5{fill:#00a79d;}.cls-6{fill:#fff;}.cls-7{fill:#999;}</style></defs><g id="Layer_1-2"><g><path class="cls-3" d="M129.94,69.42c-14.35,0-25.98-11.63-25.98-25.98s11.63-25.98,25.98-25.98c5.72,0,11.01,1.85,15.3,4.99V2.78c-4.76-1.79-9.92-2.78-15.3-2.78-23.99,0-43.44,19.45-43.44,43.44s19.45,43.44,43.44,43.44c5.39,0,10.54-.99,15.3-2.78v-19.66c-4.29,3.13-9.58,4.99-15.3,4.99Z"/><text class="cls-2" transform="translate(91.35 136.83)"><tspan x="0" y="0">ECIDE</tspan></text><text class="cls-2" transform="translate(147.47 84.74)"><tspan x="0" y="0">HAT</tspan></text><path class="cls-1" d="M17.66,97.57c-4.31,.47-7.67,4.12-7.67,8.56,0,4.76,3.86,8.62,8.62,8.62,4.44,0,8.09-3.36,8.56-7.67l-9.01-9.01-.5-.5Z"/><g><path class="cls-1" d="M76.61,94.99c0-13.61-10.42-24.79-23.73-25.99v51.98c3.6-.33,7-1.37,10.03-3.01l18.36,7.79-7.79-18.36c2-3.69,3.13-7.92,3.13-12.41Z"/><path class="cls-3" d="M52.89,88.32v-19.31c-.78-.07-1.58-.11-2.38-.11-5.46,0-10.54,1.68-14.73,4.55-.17,.12-.34,.24-.51,.37v18.3c4.95-4.33,11.65-5.59,17.62-3.79Z"/><path class="cls-3" d="M36.25,72.83c.26-.2,.52-.41,.78-.61,.28-.21,.56-.41,.84-.62,.15-.11,.31-.23,.46-.34,.19-.13,.38-.26,.58-.39,.25-.17,.51-.35,.77-.52,.86-.57,1.75-1.12,2.65-1.64,.04-.02,.08-.05,.13-.08,.46-.26,.92-.52,1.38-.77l.05-.03c.33-.18,.66-.35,1-.52,.16-.08,.31-.16,.47-.24,.25-.12,.5-.24,.75-.36,.25-.12,.49-.24,.74-.36,.14-.07,.29-.13,.44-.19,.62-.28,1.25-.55,1.89-.81,.66-.27,1.33-.53,2-.77,.09-.03,.18-.07,.27-.1,.42-.15,.85-.29,1.27-.43,.05-.02,.1-.04,.15-.05,.05-.02,.1-.03,.14-.05,.45-.14,.9-.28,1.35-.41,.08-.02,.16-.05,.24-.07,.3-.09,.61-.17,.92-.25,.23-.06,.46-.13,.68-.19,.25-.06,.51-.12,.76-.18,.28-.07,.57-.14,.85-.2,1.59-.35,3.2-.63,4.81-.82,.02,0,.05,0,.07,0,.86-.1,1.72-.17,2.59-.23,.77-.05,1.55-.08,2.32-.09,.04,0,.09,0,.13,0,.84,0,1.67,.02,2.51,.06,1.13,.06,2.25,.16,3.36,.3,2.3,.31,4.57,.81,6.78,1.53-7.26-6.86-16.88-11.25-27.51-11.82h-17.62v22.07c.17-.14,.33-.28,.5-.42,.16-.13,.32-.25,.48-.38Z"/><path class="cls-3" d="M52.89,120.98v.04h-11.77l-5.84-5.84v23.26h17.62c11.07-.6,21.04-5.33,28.39-12.68l-18.36-7.79c-3.03,1.64-6.42,2.68-10.03,3.01Z"/><path class="cls-7" d="M32.22,76.37c.95-.93,1.97-1.78,3.05-2.56v-.18c-1.06,.88-2.08,1.79-3.05,2.74Z"/><path class="cls-7" d="M62.71,61.81c.86-.1,1.72-.17,2.59-.23-.86,.05-1.72,.13-2.59,.23Z"/><path class="cls-7" d="M57.83,62.64c1.59-.35,3.2-.63,4.81-.82-1.61,.19-3.22,.47-4.81,.82Z"/><g><path class="cls-4" d="M70.26,61.55c-.83-.04-1.67-.06-2.51-.06-.04,0-.09,0-.13,0-.77,0-1.55,.04-2.32,.09-.86,.05-1.72,.13-2.59,.23-.02,0-.05,0-.07,0-1.61,.19-3.22,.47-4.81,.82-.28,.06-.57,.13-.85,.2-.25,.06-.51,.12-.76,.18-.23,.06-.46,.12-.68,.19-.31,.08-.61,.16-.92,.25-.08,.02-.16,.05-.24,.07-.45,.13-.9,.27-1.35,.41-.05,.02-.1,.03-.14,.05v1.71c11.76-2.52,24.53-.22,35.31,7.54-2.12-3.66-4.75-6.98-7.8-9.86-2.21-.72-4.48-1.22-6.78-1.53-1.11-.15-2.23-.25-3.36-.3Z"/><path class="cls-4" d="M52.89,65.7v-1.71c-.05,.02-.1,.04-.15,.05-.43,.14-.85,.28-1.27,.43-.09,.03-.18,.07-.27,.1-.67,.24-1.34,.5-2,.77-.63,.26-1.26,.53-1.89,.81-.15,.07-.29,.13-.44,.19-.25,.12-.5,.24-.74,.36-.25,.12-.5,.24-.75,.36-.16,.08-.31,.16-.47,.24-.33,.17-.67,.34-1,.52l-.05,.03c-.46,.25-.93,.51-1.38,.77-.04,.02-.08,.05-.13,.08-.9,.52-1.79,1.07-2.65,1.64-.26,.17-.51,.35-.77,.52-.19,.13-.39,.26-.58,.39-.16,.11-.31,.23-.46,.34-.28,.2-.57,.41-.84,.62-.27,.2-.52,.41-.78,.61-.16,.13-.32,.25-.48,.38-.17,.14-.33,.28-.5,.42v.18c.17-.12,.34-.25,.51-.37,5.15-3.82,10.99-6.43,17.11-7.74Z"/></g><g><path class="cls-5" d="M34.34,92.97c-1.28,1.28-2.31,2.7-3.14,4.2l-9.35-9.35-3.63-3.63-1.54-1.54c-.32-.26-.62-.55-.88-.88-.7-.9-1.12-2.03-1.12-3.26,0-2.95,2.39-5.35,5.35-5.35,2.5,0,4.6,1.72,5.18,4.04l7.23-7.23c-.76-1.1-1.68-2.08-2.7-2.95-2.57-2.17-5.87-3.52-9.49-3.57h-.51c-4.86,.09-9.15,2.49-11.85,6.14-1.84,2.5-2.94,5.57-2.94,8.91,0,3.9,1.49,7.46,3.93,10.13l-.08,.08,1.01,1.01c-5.84,3.14-9.82,9.3-9.82,16.4,0,5.94,2.79,11.21,7.12,14.62,1.16,.16,2.33,.27,3.53,.27H29.72c.25-.19,.51-.36,.75-.56,.16-.13,.31-.29,.47-.43,.3-.27,.61-.53,.89-.81,.43-.44,.84-.89,1.23-1.37,.74-.91,1.4-1.89,1.96-2.93l.26,.26v-23.07c-.31,.28-.62,.56-.92,.86Zm-15.73,21.77c-4.76,0-8.61-3.86-8.61-8.62,0-4.44,3.36-8.09,7.67-8.56l.5,.5,9.01,9.01c-.47,4.31-4.12,7.67-8.56,7.67Z"/><path class="cls-5" d="M52.89,121.02v-2.16l-4.2-4.2-9.71-9.71c.25-1.8,1.05-3.53,2.43-4.91,3.14-3.14,8.09-3.35,11.47-.63v-11.09c-5.97-1.8-12.67-.54-17.62,3.79v23.07l5.84,5.84h11.77Z"/></g><g><path class="cls-5" d="M88.19,73.24c-10.77-7.76-23.54-10.06-35.31-7.54v3.3c13.3,1.2,23.73,12.38,23.73,25.99,0,4.49-1.13,8.72-3.13,12.41l7.79,18.36c7.87-7.87,12.74-18.75,12.74-30.76,0-7.93-2.12-15.36-5.82-21.76Zm-33.93-7.29l.58,.58c-.21-.17-.41-.36-.58-.58Z"/><path class="cls-5" d="M50.51,68.89c.8,0,1.6,.04,2.38,.11v-3.3c-6.12,1.31-11.96,3.92-17.11,7.74,4.19-2.87,9.27-4.55,14.73-4.55Z"/></g><path class="cls-5" d="M54.84,66.53l-.58-.58c.17,.22,.37,.41,.58,.58Z"/></g><g><path class="cls-1" d="M103.9,43.55c0-13.61,10.42-24.79,23.73-25.99v51.98c-3.6-.33-7-1.37-10.03-3.01l-18.36,7.79,7.79-18.36c-2-3.69-3.13-7.92-3.13-12.41Z"/><path class="cls-3" d="M144.26,21.38c-.26-.2-.52-.41-.78-.61-.28-.21-.56-.41-.84-.62-.15-.11-.31-.23-.46-.34-.19-.13-.38-.26-.58-.39-.25-.17-.51-.35-.77-.52-.86-.57-1.75-1.12-2.65-1.64-.04-.02-.08-.05-.13-.08-.46-.26-.92-.52-1.38-.77l-.05-.03c-.33-.18-.66-.35-1-.52-.16-.08-.31-.16-.47-.24-.25-.12-.5-.24-.75-.36-.25-.12-.49-.24-.74-.36-.14-.07-.29-.13-.44-.19-.62-.28-1.25-.55-1.89-.81-.66-.27-1.33-.53-2-.77-.09-.03-.18-.07-.27-.1-.42-.15-.85-.29-1.27-.43-.05-.02-.1-.04-.15-.05-.05-.02-.1-.03-.14-.05-.45-.14-.9-.28-1.35-.41-.08-.02-.16-.05-.24-.07-.3-.09-.61-.17-.92-.25-.23-.06-.46-.13-.68-.19-.25-.06-.51-.12-.76-.18-.28-.07-.57-.14-.85-.2-1.59-.35-3.2-.63-4.81-.82-.02,0-.05,0-.07,0-.86-.1-1.72-.17-2.59-.23-.77-.05-1.55-.08-2.32-.09-.04,0-.09,0-.13,0-.84,0-1.67,.02-2.51,.06-1.13,.06-2.25,.16-3.36,.3-2.3,.31-4.57,.81-6.78,1.53C107.37,5.07,116.99,.68,127.62,.11h17.62V22.17c-.17-.14-.33-.28-.5-.42-.16-.13-.32-.25-.48-.38Z"/><path class="cls-7" d="M117.8,10.36c-.86-.1-1.72-.17-2.59-.23,.86,.05,1.72,.13,2.59,.23Z"/><path class="cls-7" d="M122.68,11.19c-1.59-.35-3.2-.63-4.81-.82,1.61,.19,3.22,.47,4.81,.82Z"/><g><path class="cls-4" d="M110.25,10.1c.83-.04,1.67-.06,2.51-.06,.04,0,.09,0,.13,0,.77,0,1.55,.04,2.32,.09,.86,.05,1.72,.13,2.59,.23,.02,0,.05,0,.07,0,1.61,.19,3.22,.47,4.81,.82,.28,.06,.57,.13,.85,.2,.25,.06,.51,.12,.76,.18,.23,.06,.46,.12,.68,.19,.31,.08,.61,.16,.92,.25,.08,.02,.16,.05,.24,.07,.45,.13,.9,.27,1.35,.41,.05,.02,.1,.03,.14,.05v1.71c-11.76-2.52-24.53-.22-35.31,7.54,2.12-3.66,4.75-6.98,7.8-9.86,2.21-.72,4.48-1.22,6.78-1.53,1.11-.15,2.23-.25,3.36-.3Z"/><path class="cls-4" d="M127.62,14.25v-1.71c.05,.02,.1,.04,.15,.05,.43,.14,.85,.28,1.27,.43,.09,.03,.18,.07,.27,.1,.67,.24,1.34,.5,2,.77,.63,.26,1.26,.53,1.89,.81,.15,.07,.29,.13,.44,.19,.25,.12,.5,.24,.74,.36,.25,.12,.5,.24,.75,.36,.16,.08,.31,.16,.47,.24,.33,.17,.67,.34,1,.52l.05,.03c.46,.25,.93,.51,1.38,.77,.04,.02,.08,.05,.13,.08,.9,.52,1.79,1.07,2.65,1.64,.26,.17,.51,.35,.77,.52,.19,.13,.39,.26,.58,.39,.16,.11,.31,.23,.46,.34,.28,.2,.57,.41,.84,.62,.27,.2,.52,.41,.78,.61,.16,.13,.32,.25,.48,.38,.17,.14,.33,.28,.5,.42v.18c-.17-.12-.34-.25-.51-.37-5.15-3.82-10.99-6.43-17.11-7.74Z"/></g><g><path class="cls-5" d="M86.49,43.55c0,12.01,4.87,22.89,12.74,30.76l7.79-18.36c-2-3.69-3.13-7.92-3.13-12.41,0-13.61,10.42-24.79,23.73-25.99v-3.3c-11.76-2.52-24.53-.22-35.31,7.54-3.7,6.4-5.82,13.83-5.82,21.76ZM125.67,15.08l.58-.58c-.17,.22-.37,.41-.58,.58Z"/><path class="cls-5" d="M130,17.44c-.8,0-1.6,.04-2.38,.11v-3.3c6.12,1.31,11.96,3.92,17.11,7.74-4.19-2.87-9.27-4.55-14.73-4.55Z"/></g><path class="cls-5" d="M125.67,15.08l.58-.58c-.17,.22-.37,.41-.58,.58Z"/></g><path class="cls-6" d="M103.9,43.55c0-13.61,10.42-24.79,23.73-25.99v51.98c-3.6-.33-7-1.37-10.03-3.01l-18.36,7.79,7.79-18.36c-2-3.69-3.13-7.92-3.13-12.41Z"/></g></g></svg>